<?xml version="1.0" standalone="no"?>
<!DOCTYPE svg PUBLIC "-//W3C//DTD SVG 20010904//EN"
 "http://www.w3.org/TR/2001/REC-SVG-20010904/DTD/svg10.dtd">
<svg version="1.0" xmlns="http://www.w3.org/2000/svg"
 width="562.000000pt" height="474.000000pt" viewBox="0 0 562.000000 474.000000"
 preserveAspectRatio="xMidYMid meet">

<g transform="translate(0.000000,474.000000) scale(0.100000,-0.100000)"
fill="#000000" stroke="none">
<path d="M0 2370 l0 -2370 2810 0 2810 0 0 2370 0 2370 -2810 0 -2810 0 0
-2370z m4111 985 c133 -18 202 -36 278 -75 200 -101 296 -308 276 -595 l-7
-105 -180 0 -180 0 5 23 c70 284 -9 450 -243 508 -84 21 -285 17 -400 -8 -272
-59 -426 -168 -438 -309 -6 -73 2 -97 46 -140 89 -87 251 -136 612 -184 201
-27 393 -65 494 -97 168 -53 296 -136 342 -224 25 -47 25 -152 0 -203 -88
-178 -398 -289 -802 -287 -361 1 -629 53 -960 185 -78 31 -150 56 -159 56 -25
0 -17 11 78 109 l88 90 104 -54 c148 -76 339 -136 530 -166 44 -7 163 -13 265
-13 215 -1 318 16 419 67 79 39 97 70 75 132 -16 47 -39 67 -119 105 -85 39
-199 63 -530 110 -393 56 -516 85 -659 157 -66 33 -150 114 -175 169 -81 172
6 409 203 548 240 170 657 251 1037 201z m-2034 -59 c11 -53 90 -263 155 -410
116 -266 480 -1036 542 -1144 20 -35 36 -66 36 -68 0 -2 -97 -4 -215 -4 -198
0 -215 1 -215 18 -1 9 -20 69 -44 132 l-42 115 -110 8 c-60 4 -277 5 -483 1
l-373 -6 -24 -55 c-13 -30 -37 -90 -52 -134 l-27 -79 -212 0 -212 0 35 63 c76
133 399 814 559 1177 66 151 136 344 142 393 l6 47 261 0 262 0 11 -54z"/>
<path d="M1731 2823 c-37 -76 -94 -194 -126 -263 -31 -69 -84 -182 -116 -253
-33 -70 -59 -132 -59 -137 0 -6 69 -10 178 -10 248 0 572 12 572 21 0 29 -358
779 -372 779 -4 0 -39 -62 -77 -137z"/>
</g>
</svg>
